<svg width="24" height="24" viewBox="0 0 24 24" fill="none" xmlns="http://www.w3.org/2000/svg">
<path fill-rule="evenodd" clip-rule="evenodd" d="M7.55544 18.6518C8.87104 19.5308 10.4178 20 12 20C14.121 19.9976 16.1544 19.1539 17.6542 17.6542C19.1539 16.1544 19.9976 14.121 20 12C20 10.4178 19.5308 8.87103 18.6518 7.55544C17.7727 6.23985 16.5233 5.21447 15.0615 4.60897C13.5997 4.00347 11.9911 3.84504 10.4393 4.15372C8.88744 4.4624 7.46197 5.22433 6.34315 6.34315C5.22433 7.46197 4.4624 8.88743 4.15372 10.4393C3.84504 11.9911 4.00347 13.5997 4.60897 15.0615C5.21447 16.5233 6.23985 17.7727 7.55544 18.6518ZM8.35266 6.54137C9.43228 5.81999 10.7016 5.43496 12 5.43496C13.7408 5.43617 15.4099 6.12824 16.6409 7.35916C17.8718 8.59008 18.5638 10.2592 18.5651 12C18.5651 13.2984 18.18 14.5677 17.4586 15.6473C16.7373 16.727 15.7119 17.5684 14.5123 18.0653C13.3127 18.5622 11.9927 18.6922 10.7192 18.4389C9.44574 18.1856 8.27596 17.5603 7.35782 16.6422C6.43968 15.7241 5.81442 14.5543 5.56111 13.2808C5.30779 12.0073 5.4378 10.6873 5.9347 9.48767C6.43159 8.28807 7.27305 7.26274 8.35266 6.54137ZM7.97935 13.1274C10.3816 15.3739 10.7805 15.5939 11.0831 15.5939L11.1885 15.5985C11.3877 15.5774 11.5706 15.4785 11.6974 15.3234C11.8423 15.1402 14.0667 12.6319 15.7344 10.7512C15.8609 10.6086 15.9842 10.4696 16.1031 10.3355C16.2285 10.1924 16.2921 10.0055 16.2801 9.81563C16.2681 9.62577 16.1814 9.4484 16.039 9.32228C15.969 9.25949 15.8874 9.2112 15.7987 9.18018C15.71 9.14917 15.616 9.13605 15.5222 9.14159C15.4284 9.14714 15.3366 9.17123 15.2522 9.21247C15.1678 9.25372 15.0924 9.3113 15.0304 9.38188L14.9075 9.51984C13.4424 11.1647 11.7902 13.0195 11.0143 13.9114C10.5146 13.5034 9.67104 12.7469 8.95586 12.0776C8.81629 11.9488 8.63149 11.8804 8.44171 11.8873C8.25194 11.8941 8.07256 11.9757 7.94268 12.1143C7.87835 12.1831 7.82826 12.2639 7.79527 12.3522C7.76229 12.4404 7.74706 12.5343 7.75047 12.6285C7.75388 12.7226 7.77585 12.8152 7.81513 12.9008C7.85441 12.9864 7.91022 13.0634 7.97935 13.1274Z" fill="#08B3A1"/>
</svg>
