<svg width="22" height="18" viewBox="0 0 22 18" fill="none" xmlns="http://www.w3.org/2000/svg">
<path d="M11.0001 12C10.4001 12 10.0001 11.6 10.0001 11V7C10.0001 6.4 10.4001 6 11.0001 6C11.6001 6 12.0001 6.4 12.0001 7V11C12.0001 11.6 11.6001 12 11.0001 12Z" fill="#FFB028"/>
<path d="M11.0001 15C10.4001 15 10.0001 14.6 10.0001 14C10.0001 13.4 10.4001 13 11.0001 13C11.6001 13 12.0001 13.4 12.0001 14C12.0001 14.6 11.6001 15 11.0001 15Z" fill="#FFB028"/>
<path fill-rule="evenodd" clip-rule="evenodd" d="M10.1001 0.5C10.3001 0.2 10.7001 0 11.0001 0C11.3001 0 11.7001 0.2 12.0001 0.5L21.2001 16.5C21.6001 17.2 21.1001 18 20.3001 18H1.80006C1.00006 18 0.500058 17.2 0.900058 16.5L10.1001 0.5ZM18.5001 16L11.0001 3L3.50006 16H18.5001Z" fill="#FFB028"/>
</svg>
