<?xml version="1.0" encoding="UTF-8"?><svg id="Camada_2" xmlns="http://www.w3.org/2000/svg" viewBox="0 0 508.72 347.62"><defs><style>.cls-1{fill:#dedbd6;}.cls-2{fill:#bcbdc1;}.cls-3{fill:#ac5d52;}.cls-4{fill:#d6cdc2;}.cls-5{fill:#f2c8b0;}.cls-6{fill:#f6f6f6;}.cls-7{fill:#acc2b7;}.cls-8{fill:#764b28;}.cls-9{fill:#613a16;}.cls-10{fill:#6a7b81;}.cls-11{fill:#9fadb3;}.cls-12{fill:#3a2313;}.cls-13{fill:#8594a0;}.cls-14{fill:#8b5f3c;}.cls-15{fill:#8c603c;}.cls-16{fill:#9d9c9d;}.cls-17{fill:#b9d7cd;}.cls-18{fill:#bca6a8;}.cls-19{fill:#875b38;}.cls-20{fill:#6c6d6f;}.cls-21{fill:#b7d1c5;}.cls-22{fill:#a67c53;}.cls-23{fill:#ac5d53;}.cls-24{fill:#5c6e7a;}.cls-25{fill:#885d3a;}.cls-26{fill:#ac5e52;}.cls-27{fill:#e3f4fb;}.cls-28{fill:#c2976b;}.cls-29{fill:#8796a1;}.cls-30{fill:#02060f;}.cls-31{fill:#a47950;}.cls-32{fill:#603a16;}.cls-33{fill:#fcfcfc;}.cls-34{fill:#ceaea1;}</style></defs><g id="Camada_1-2"><g><path d="M144.99,296.05c-.1-.21-.15-.43-.2-.66-.27-1.21-1.25-1.91-2.17-2.6-1.37-1.03-2.46-2.3-3.55-3.6-.84-1-.62-1.45,.41-2.19,4.81-3.45,5.37-6.27,2.37-11.28-.09-.16-.2-.31-.32-.44-1.07-1.23-2.08-2.5-3.29-3.59-.08-.07-.17-.14-.26-.21-4.23-3.11-8.39-6.31-12.3-9.81-.52-.54-1.19-.82-1.86-1.11-4.66-2.53-9.7-1.66-13.12,2.27-3.56,4.09-3.43,8.94,.38,14.48,.59,.69,.41,1.73,1.11,2.37,3.8,4.38,8.69,6.96,14.17,8.53,1.35,.32,2.7,.65,4.11,.61,.41,.05,.9-.04,1.11,.38,.16,.33-.16,.56-.43,.7-.57,.3-1.2,.37-1.81,.51-.36,.08-.71,.23-1.01,.44-2.59,1.83-3.84,4.74-5.65,7.2-.71,.96-.06,1.77,.42,2.58,0,0,6.21,13.99,13.7,10.64h0c.78-.17,1.67-.51,2.68-1.13,.26-.16,.55-.3,.85-.37,.34-.07,1.39-.61,2.18-1.05l1.79-.8-.41-.83c-.02-.45-.2-.97-.35-1.61-.31-1.34,.29-2.29,1.32-3.18,.49-.42,.87-.96,1.02-1.58,.39-1.62-.15-3.15-.85-4.66Z"/><path class="cls-28" d="M103.81,123.6c-2.89-1.76-6.28-1.55-9.4-2.41-3.37-.92-3.54-1.03-1.74-3.82,8.08-12.42,17.02-23.99,30.96-30.45,.65-.3,.99-.73,1.17-1.37,.59-.27,1.14-.05,1.71,.08,10.02,1.03,20,2.37,30.06,2.96,8.35,.49,16.71,1.25,25.06,1.39,17.48,.29,34.98,1.51,52.45,.67,15.45-.74,30.91-.76,46.36-1.61,17.14-.94,34.27-1.96,51.36-3.5,13.4-1.21,26.83-2.2,40.19-3.89,1.46-.18,2.96-.54,4.26,.58,16.08,8.14,28.53,20.2,38.25,35.26,1.5,2.32,1.2,3.24-1.6,3.6-3.35,.43-6.64,1.23-9.98,1.74-1.23,.19-1.95,.61-1.9,1.92-14.67,1.36-29.23,3.69-43.93,4.75-10.78,.78-21.56,1.59-32.35,2.3-13.65,.9-27.32,1.17-40.97,1.59-16.75,.52-33.51,.46-50.27-.02-1.31-.36-2.59-.56-3.98-.16-3.52,1.02-7.03-.59-10.57-.16-1.85-.14-3.7-.4-5.56-.12-13.3,.28-26.54-.99-39.81-1.4-1.47-.4-2.95-.72-4.48-.61-3.96,.22-7.87-.76-11.83-.58-16.99-1.36-33.95-3.04-50.78-5.85-.95-.16-1.88-.34-2.68-.92Z"/><path class="cls-28" d="M173.24,35.19c2.85-1.33,3.59-4.23,4.11-6.73,1.73-8.21,6.8-13.44,13.99-17.03,12.79-6.39,26.36-9.7,40.61-10.67,18.04-1.23,36.02-1.07,53.96,1.32,11.4,1.52,22.01,5.47,31.99,10.99,5.68,3.14,9.52,8,10.95,14.56,.42,1.91,.69,4.03,2.81,5.05,5.67,7.08,11.67,13.88,18.04,20.34,.78,.79,2.2,1.79,.39,3.06-1.53,.64-3.13,.52-4.71,.53-41.34,.01-82.69,.26-124.03-.12-16.83-.15-33.68-.62-50.5-1.27-3.64-.14-7.43,.09-10.94-1.37-1.13-1.41-.05-2.34,.78-3.25,4.47-4.91,8.74-9.97,12.56-15.4Z"/><path class="cls-12" d="M159.91,52.43c-.04,1.85,1.39,1.23,2.28,1.26,16.52,.48,33.04,.96,49.56,1.35,45.03,1.07,90.07,.29,135.11,.49,1.3,0,2.76,.57,3.89-.63,1.18-.36,1.71,.64,2.39,1.2,6.12,5.05,11.81,10.56,16.74,16.79,2.14,2.7,5.41,4.53,6.41,8.12-.01,.41-.03,.82-.04,1.23-16.56,1.64-33.1,3.46-49.67,4.86-14.26,1.2-28.55,2.05-42.84,2.83-24.57,1.35-49.17,2.08-73.78,1.73-27.57-.39-55.11-1.31-82.49-4.93-.7-.09-1.52,.07-1.99-.71,.14-.76,.52-1.38,1.06-1.92,4.93-4.97,9.67-10.16,14.92-14.78,5.58-4.92,10.61-10.38,15.97-15.51,.67-.65,1.04-2.03,2.48-1.37Z"/><path d="M403.5,139.56c1.47,20.53,.35,40.88-4.31,60.96-.52,2.23-.22,2.53,2.11,2.45,35.16-1.18,70.16,.33,104.84,6.76,.31,.06,.62,.13,.93,.19,.82,.16,1.81,.19,1.63,1.43-.22,1.55-1.29,.66-1.96,.56-5.34-.84-10.66-1.83-16-2.61-27.77-4.08-55.7-5.25-83.73-4.48-.64,.02-1.27,.04-1.91,.05-7.04,.09-6.93,.13-9.34,6.67-.87,2.35-.16,2.5,1.93,2.61,10.58,.55,21.18,1.04,31.73,1.99,26.01,2.33,51.73,6.43,76.95,13.32,.83,.23,2.58-.04,2.15,1.6-.44,1.65-1.79,.54-2.65,.31-35.72-9.56-72.17-13.87-109.03-15.27-1.68-.06-2.89-.06-3.78,1.85-9.08,19.43-24.6,31.73-44.14,39.47-4.77,1.89-9.66,3.46-14.5,5.18-.89,.87-2.09,.97-3.2,1.26-10.05,2.6-20.26,4.36-30.59,5.27-5.26,.46-9.72,2.76-14.11,5.3-6.14,3.54-12.01,7.5-17.29,12.28-7.38,2.08-14.93,2.73-22.55,2.73-1.64,0-3.03-.86-4.3-1.85-5.82-5.25-11.83-10.17-18.8-13.98-5.75-3.14-11.74-4.51-18.13-5.19-9.91-1.06-19.71-2.85-29.31-5.59-6.33-1.65-12.44-3.95-18.46-6.5-.87-.37-1.71-.82-2.33-1.59-.71-1.16,.09-1.99,.69-2.78,1.17-1.53,.79-2.66-.74-3.59-.89-.71-1.72-1.46-1.67-2.75,.12-.75,.5-1.38,.89-2.01,2.31-3.74,3.38-4.23,7.13-2.11,6.23,3.53,13.34,4.65,19.79,7.54,10.7,3.19,21.54,5.63,32.67,6.74,8.34,.83,16.71,1.01,25.07,1.43,8.6,.43,17.19,.77,25.76,.39,15.55-.69,31.2-.2,46.6-3.15,10.56-2.03,20.89-4.65,30.15-10.55,8.52-5.43,14.81-12.67,18.71-21.92,5.35-12.69,7.04-26,5.5-39.59-1.25-11.04-6.78-20.18-14.24-28.23-2.59-2.79-5.77-5-7.95-8.19-.42-2.31,1.24-2.62,2.85-2.89,3.76-.64,7.57-1.04,11.36-1.23,13.76-.68,27.41-2.24,41.03-4.19,1.82-.26,3.95-.88,4.58,1.9Z"/><path d="M136.17,242.81c-8.71-7.23-16.24-15.48-21.66-25.5-.83-1.54-2.06-1.2-3.26-1.15-18.35,.65-36.62,2.23-54.81,4.69-17.77,2.4-35.35,5.81-52.66,10.5-.41,.11-.82,.22-1.23,.33-.62,.16-1.24,.39-1.57-.48-.4-1.07,.33-1.27,1.08-1.46,3.58-.94,7.15-1.96,10.75-2.82,30.52-7.3,61.52-11.12,92.84-12.5,6.92-.3,6.86-.31,4.18-6.82-.71-1.73-1.49-2.7-3.57-2.76-34.76-.99-69.33,.66-103.59,7.07-.91,.17-2.34,1.08-2.63-.53-.29-1.64,1.41-1.22,2.3-1.4,20.54-4.03,41.31-6,62.21-6.91,13.57-.59,27.14-.64,40.71-.19,1.97,.07,2.64-.22,1.91-2.42-6.33-19.23-7.24-39.09-6.71-59.11,.03-1.1,.36-2.06,.72-3.05,1.24-1.12,2.73-.97,4.2-.74,10.63,1.6,21.34,2.56,32.03,3.56,1.48,.14,2.96,.26,3.98,1.56,.8,1.95-.59,3.21-1.55,4.54-6.61,9.11-10.63,19.19-11.87,30.43-1.81,16.31,2.07,31.09,11.42,44.5,2.25,3.23,4.83,6.16,7.67,8.89,1.05,1.01,2.25,1.99,2.32,3.66-.54,2.13-1.7,3.86-3.48,5.16-1.36,.47-2.41-.28-3.49-.88-1.5-.94-2,.32-2.72,1.19-.96,1.15-1.5,2.89-3.51,2.65Z"/><path class="cls-28" d="M318.88,308.32c-25.19,.03-50.39,.13-75.57-.16-6.39-.07-12.78,.39-19.17,.03-.65-.97-1.31-.65-1.98-.02-25.3,.03-50.59,.07-75.89,.1-1.04,0-2.21,.22-2.47-1.28-.4-1.78,.62-3.39,.6-5.13,1.04-2.13-.86-4.35,.19-6.47,1.62-.58,2.87,.41,4.15,1.07,5.6,2.87,11.46,4.95,17.74,5.59,8.57,.86,16.58-.98,24.02-5.32,1.53-.89,2.49-2.14,3-3.89,.58-1.99,1.2-3.7-1.91-3.76-.48,0-.92-.5-.58-1.17,.73-.74,1.68-.91,2.64-.93,14.2-.26,28.32-2.13,42.53-2.03,2.34,.02,4.33,.78,6.33,1.74,1.72,1.64,3.76,2.04,6.1,1.87,6.92-.52,13.84-.99,20.64-2.52,4.05-1.93,8.34-1.08,12.5-.88,10.76,.51,21.51,1.39,32.28,1.77,1.54,.05,3.48-.54,4.24,1.66-5.22,.19-5.11,.17-4.11,5.39,.71,3.72,1.05,5.61,1.37,9.38,.12,1.38,18.7-.61,24.35,0,0,1.11-3.48,4.01-3.29,4.28"/><path d="M159.91,52.43c-11.47,11.2-22.95,22.39-34.42,33.59-.23-.16-.46-.31-.68-.47-6.89-20.4-5.22-40.48,2.14-60.38,.65-1.77,1.64-2.44,3.47-2.56,7.22-.47,14.12,1.06,20.93,3.2,7.61,2.39,14.8,5.76,21.89,9.38,.59,1.27-.45,1.98-1.03,2.77-3.78,5.09-7.82,9.97-12.29,14.47Z"/><path class="cls-30" d="M403.5,139.56c-2.47-2.93-5.48-.74-7.96-.38-9.15,1.33-18.32,2.22-27.52,2.96-7.32,.59-14.63,1.29-21.95,1.88-1.44,.12-2.25,.5-1.73,2.11-2.04,.57-3.21-1.13-4.77-1.82-12.87-5.8-26.45-6.16-40.2-5.3-7.5,.47-15,.86-22.48,1.52-10.56,.93-21.15,.76-31.74,.71-1.27,0-2.54,0-3.8-.22-4.38-.25-6.9-3.59-9.91-6.08-.63-.52-1.42-1.28-.99-2.12,.53-1.03,1.59-.57,2.47-.32,29.47,.35,58.92-.07,88.36-1.59,21.17-1.1,42.28-2.81,63.32-5.39,4.31-.53,8.6-1.23,12.9-1.81,1.31-.18,2.76-.68,3.52,1.06,.61,4.97,2.46,9.73,2.49,14.8Z"/><path d="M376.29,81.01c-8.22-8.99-16.11-18.31-25.54-26.11-6.14-5.87-12-11.99-17.25-18.67-.82-1.04-2.02-1.96-1.84-3.55,9.3-4.45,18.77-8.63,29.11-9.62,13.66-1.32,10.98-1.85,14.55,9.49,4.86,15.46,5.63,31.19,1.58,47.02-.13,.5-.4,.97-.6,1.45Z"/><path class="cls-8" d="M318.27,288.58c-.66-.72-1.55-.57-2.37-.59-15.57-.24-31.07-2.12-46.65-1.97,5.1-5.69,11.87-9.05,18.12-13.19,6.71-4.44,14.38-4.57,21.85-5.65,7.74-1.12,15.43-2.46,23-4.48,.69-.19,1.46-.07,2.2-.1,3.84,3.47,7.69,6.92,11.49,10.42,.64,.59,1.79,1.21,1.25,2.27-.4,.81-1.54,.51-2.33,.51-6.34,0-12.66,.35-18.97,1.05-2.99,.33-3.27,1.69-2.36,4.02,.84,2.16,1.65,4.34,2.56,6.48,.71,1.66,.11,2.09-1.49,1.89-2.1-.25-4.2-.45-6.3-.67Z"/><path d="M364.8,308.34c.46,2.11,.91,4.22,1.37,6.34,2.32,13.41-3.53,23.09-14.04,30.62-.69,.49-1.43,.91-2.21,1.26-5.85,2.6-10.07,.4-11.25-5.87-.26-1.36-.32-2.73-.12-4.11,.66-4.71,1.98-9.33,1.83-14.15-.02-.76-.51-2.4-.04-2.99-.07-2.89-.12-4.63-.9-7.37-.69-2.44-1.94-4.07-4.57-4.36,5.04-9.39,21.02-10.75,27.63-2.36,.78,.99,1.53,2,2.3,3Z"/><path class="cls-30" d="M141.32,143.52c-2.92-2.5-6.61-1.62-9.91-1.92-8.54-.79-17.06-1.8-25.55-2.96-1.58-.22-3.13-.26-4.69-.34,.1-5.04,1.51-9.84,2.64-14.7,4.68-.46,9.14,1.05,13.69,1.63,13.21,1.68,26.44,3.08,39.72,4.15,.37,1.34-.64,1.97-1.48,2.51-4.32,2.78-7.94,6.34-11.51,9.98-.79,.81-1.53,1.83-2.91,1.65Z"/><path class="cls-25" d="M111.98,279.04c4.03,3.85,8.49,6.99,14,8.37,2.1,1.34,.55,2.56-.22,3.64-3.36,4.75-6.72,9.49-10.14,14.19-.54,.74-1.4,1.38-1.04,2.5-.67,.72-1.55,.57-2.37,.52-3.27-.19-11.9-6.86-13.02-10.04-.42-.83-.33-1.61,.16-2.38,3.77-5.93,7.72-11.73,12.63-16.81Z"/><path class="cls-32" d="M114.58,307.74c-.72-.23-2.23,.28-.9-1.48,4.01-5.31,7.82-10.77,11.78-16.12,.67-.9,1.41-1.62,.52-2.74,1.48,.19,2.95,.39,4.43,.58,.4,1.6-.96,2.17-1.78,3.06-2.42,2.12-3.76,5.09-5.83,7.48-.64,.73,.24,1.42-.08,2.11-1.7-1.1-1.83,.73-2.49,1.41-1.88,1.9-2.64,4.9-5.64,5.7Z"/><path class="cls-31" d="M124.68,261.88l-1.23-1.31c4.52-5.72,9.22-11.31,12.71-17.75,1.84-.98,2.64-2.86,3.78-4.42,.94-1.29,1.68-1.32,2.61-.11,.39,1.09-.37,1.8-.9,2.55-4.7,6.6-9.56,13.09-14.5,19.51-.6,.79-1.11,1.89-2.47,1.54Z"/><path class="cls-22" d="M111.98,279.04c-3.11,5.23-7.06,9.85-10.61,14.76-.98,1.35-2.2,2.59-2.18,4.43-1.14-2.4,.11-4.3,1.4-6.1,2.89-4.04,5.87-8.02,8.83-12.01,.63-.85,1.33-1.65,1.29-2.8,.42,.58,.85,1.15,1.27,1.73Z"/><path class="cls-20" d="M141.32,143.52c4.82-5.25,10.35-9.7,15.9-14.14,4.03-.28,7.99,.72,12,.74-.06,1.65-1.51,1.84-2.57,2.35-6.21,3-11.84,6.8-16.61,11.81-8.15,8.33-13.4,18.16-15.68,29.61-4.64,23.3,5.83,47.49,25.95,60.1,9.9,6.2,20.75,9.38,32.28,9.01,29.48-.95,52.77-21.73,56.55-50.49,2.22-16.9-2.43-32.05-13.34-45.21-3.81-4.71-8.5-8.38-13.57-11.63-1.28-.82-2.89-1.4-3.32-3.16,2.12-1.4,4.29-.11,6.38,.06,2.57,.21,5.09-1.34,7.63-.08-.7,.11-1.4,.21-2.85,.43,4.09,2.33,5.93,6.7,10.62,7.17,.55,3.05,3.24,4.7,4.7,7.17,17.17,24.23,15.74,57.3-3.57,79.99-13.99,16.44-32.08,23.71-53.44,23.36-2.55-.04-4.98-1.04-7.54-1-6.77-2.56-14.02-3.9-20.25-7.78-2.27-1.41-3.56-.94-4.72,1.24-.54,1.01-1.34,1.89-2.02,2.83-3.61,.03-5.55-2.58-7.69-4.86,.31-1.53,1.53-2.51,2.33-3.73,.47-.72,1.1-1.36,.38-2.26,.24-1.3-.8-1.87-1.53-2.58-25.08-24.57-27.82-59.64-6.86-87.63,.32-.42,.57-.89,.85-1.33Z"/><path class="cls-24" d="M173.04,130.64l40.87,1.45c3.62,.56,6.52,2.65,9.43,4.63,.86,.59,2.51,1.36,.72,2.8-5.6,.66-11.15-.27-16.71-.57-13.82-.73-27.49-.57-40.34,5.61-.54,.21-1.09,.32-1.66,.36-2.94,.05-5.9,.29-8.81-.42-1.11-.27-2.33-.34-2.92-1.58-.28-1.04,.11-1.92,.87-2.55,4.99-4.16,10.5-7.42,16.67-9.54,.6-.21,1.27,.07,1.87-.2Z"/><path class="cls-29" d="M224.69,138.94c-3.02-3.19-7.24-4.49-10.78-6.85,1.69-.12,3.39-.38,4.99,.44,6.21,4.11,12.63,7.98,17.23,14.07-.46,.55-1.08,.65-1.74,.61-.31-.04-.61-.13-.9-.25-2.83-2.28-5.25-5.07-8.43-6.95-.38-.22-.54-.61-.36-1.07Z"/><path class="cls-13" d="M173.04,130.64c-5.98,2.62-11.88,5.38-17.03,9.5-.75,.6-1.55,1.1-2.02,1.96-.6,.99-1.01,2.18-2.46,2.24-.76-.06-1.43-.3-1.93-.91,5.58-5.85,12.53-9.68,19.62-13.3,1.31-.1,2.62-.22,3.82,.51Z"/><path class="cls-15" d="M224.93,7.81c-.43,15.57-8.86,31.31-21.57,37.73,9.62-11.18,18.35-22.85,21.57-37.73Z"/><path class="cls-14" d="M301.77,46.25c-13.81-8.53-20.99-21.06-22.09-37.19,3.75,14.55,12.32,26.21,22.09,37.19Z"/><path class="cls-5" d="M180.84,249.63c1.11-1.07,2.43-.47,3.62-.36,20.58,1.99,38.38-4.16,53.05-18.64,22.1-21.82,25.11-55.89,7.58-82.32-.23-.35-.44-.72-.66-1.08,.74-2.21,2.69-1.67,4.23-1.69,10.05-.09,20.12,.29,30.15-.12,16.37-.68,32.76-.56,49.11-1.7,4.18-.29,8.42-.58,12.59,.35,1.28,.69,2.55,1.37,3.83,2.06,10.66,8.75,19.79,18.98,21.8,32.94,3.22,22.32,.38,43.59-16.93,60.27-9.5,9.15-21.73,12.95-34.36,15.46-12.43,2.47-25.03,3.11-37.66,3.43-20.9,.52-41.78,.57-62.63-1.43-11.23-1.08-22.14-3.65-32.99-6.59-.28-.08-.49-.38-.74-.58Z"/><path class="cls-6" d="M144.5,295.73c-3.06-2.28-5.7-4.96-8.13-8.16,2.39-1.41,5.49-2.04,6.05-5.33,.41-2.42-.39-4.55-1.81-6.49-.81-1.44-.18-2.64,.65-3.79,3.84-5.32,7.79-10.55,11.61-15.89,.61-.85,1.25-1.73,2.45-1.83,6.75,3.19,13.73,5.76,20.91,7.77,.9,1.77-.64,2.43-1.57,3.27-2.67,2.4-5.57,4.55-8.04,7.18-1.4,1.49-.93,2.16,.88,2.35,2.32,.25,4.65,.2,6.97,.11,3.41-.14,6.74,.49,10.1,.81,3.46,.33,4.4,1.85,3.56,5.17-.39,1.54-.97,3.02-1.57,4.49-.71,1.75-.71,2.95,1.75,2.52,.94-.16,1.91-.14,2.66,.64h4.38c-.43,9.85-8.18,11.41-15.15,13.32-10.14,2.79-19.93,1.02-29.35-3.41-2.09-.98-3.94-2.55-6.37-2.74Z"/><path class="cls-8" d="M190.99,288.56q-6.8,.66-4.44-5.6c2.19-5.81,2.01-6.13-4.2-6.53-5.48-.36-10.98-.58-16.46-.94-.75-.05-1.88,.46-2.19-.62-.26-.91,.67-1.5,1.26-2.04,3.13-2.84,6.31-5.62,9.45-8.45,.74-.67,1.93-1.02,1.83-2.35,11.97,3.11,24.13,5.12,36.43,6.36,5.74,.58,10.38,4.04,15.25,6.74,5.48,3.04,10.25,7.06,14.6,11.56-9.84-1.54-19.66-.01-29.49,.25-5.71,.15-11.38,1.1-17.11,1.04-1.65-.02-3.39-.43-4.93,.59Z"/><path class="cls-25" d="M146.39,240.87c2.47,1.7,4.6,3.91,7.45,5.05,.66,.67,1.32,1.35,1.99,2.02,.42,1.32-.47,2.21-1.1,3.13-4.57,6.68-9.44,13.14-14.31,19.6-.74,.98-1.47,2.18-3.07,1.47-4.4-3.21-8.89-6.3-12.68-10.27,2.55-3.19,5.19-6.32,7.64-9.58,3.48-4.62,6.83-9.34,10.23-14.02,1.07,.35,1.81,1.48,3.1,1.34,.57,.23,.71,.71,.74,1.26Z"/><path class="cls-9" d="M137.36,272.14c.9-.11,1.48-.6,2.02-1.34,5.5-7.61,11.31-14.99,16.45-22.86,2.46,.97,2.69,2.42,.96,4.34-.55,.6-.98,1.31-1.46,1.97-4.58,6.22-9.17,12.45-13.75,18.67-.62,.84-1.39,1.64-.96,2.83-1.09-1.21-2.17-2.41-3.26-3.61Z"/><path class="cls-21" d="M144.4,301.85c-1.67,.05-2.56,.59-3.05,2.32-.41,1.43-.06,2.07,1.06,2.72,.62,.42,.94-.31,1.15-.29,1.05-1.57,1.16-2.84,.84-4.75Z"/><path class="cls-4" d="M222.15,308.17c-.02-1.08,.24-2,1.59-1.71,1.18,.25,.67,1.06,.4,1.74-.66,0-1.32-.02-1.98-.02Z"/><path class="cls-16" d="M146.39,240.87c-.25-.42-.5-.84-.74-1.26,1.07-1.51,2.14-3.03,3.21-4.55,.49-.12,1.08-.47,1.44-.3,.6,.28,.29,.92,0,1.32-1.21,1.66-2.16,3.54-3.9,4.78Z"/><path class="cls-19" d="M241.26,301.95c.26-1.21-.11-3.79,3.23-2.2,.5,.24,1.24,.08,1.84-.04,1.38-.29,2.77-.74,3.5,1.07,.69,1.7,.49,3.31-.56,4.78-.99,1.38-2.42,2.11-4.08,1.79-2.53-.49-4.2-1.9-3.92-5.4Z"/><path class="cls-34" d="M340.52,144.07c-5.5,1.3-11.14,.62-16.7,1.07-9.67,.78-19.43,.4-29.14,.85-15.86,.72-31.72,.56-47.58,.6-.92,0-1.94-.25-2.66,.64-1.54-1.87-3.01-3.81-4.64-5.6-1.56-1.72,.41-1.13,.9-1.51,19.52,.93,38.92-1.09,58.37-2.13,11.42-.61,22.88-.86,33.98,2.76,2.6,.85,5.26,1.61,7.48,3.33Z"/><path class="cls-17" d="M135.97,294.03c2.13,.24,4.22,.53,4.17,3.08-.04,2.37-2.12,2.74-3.92,2.79-1.97,.05-4.16-.48-4.21-2.87-.05-2.44,2.14-2.78,3.96-3Z"/><path class="cls-7" d="M128.63,291.05c.09-1.31,1.27-1.99,1.78-3.06,.92,.16,2.33-.94,2.67,.61,.26,1.18-.99,1.68-1.96,2.15-.81,.4-1.64,.34-2.49,.3Z"/><path class="cls-11" d="M149.61,143.43c.7-.02,1.42-.12,1.87,.62,.35,1.25-.52,2-1.23,2.74-8.43,8.82-13.2,19.4-14.76,31.39-1.51,11.58,.9,22.55,6.14,32.92,.52,1.03,1.05,2.1,2.1,2.74,2.89,5.77,6.94,10.56,12.03,14.53,12.34,9.63,26.15,14.11,41.87,12.36,19.03-2.12,33.18-11.9,42.74-28.07,8.61-14.57,9.93-30.2,4.27-46.28-2.1-5.95-5.03-11.45-9.02-16.36-.78-.97-1.72-1.94-1.44-3.38,.65-.01,1.3-.03,1.95-.04,8.73,9.88,13.3,21.4,14.15,34.58,1.15,17.91-4.75,33.17-17.27,45.7-9.73,9.73-21.72,15.13-35.56,16.6-30.53,3.26-58.93-17.51-64.2-48.49-3.36-19.74,2.36-37.08,16.35-51.57Z"/><path class="cls-1" d="M234.18,146.64c6.84,8.17,11.78,17.34,13.65,27.88,3.13,17.58-1.07,33.42-12.55,47.06-8.72,10.36-19.79,17.06-33.27,19.5-14.35,2.6-27.71,.03-40.24-7.37-6.19-3.66-11.28-8.5-15.85-13.99-1.42-1.71-1.37-3.99-2.73-5.64-1.41-.88-1.63-2.51-1.97-3.84-3.21-12.46-4.53-24.96-.01-37.43,3.82-10.53,10.59-18.92,19-26.1,1.56-1.33,3.41-2.08,5.36-2.62l1.05-.15c3.15-.57,6.34-.51,9.49-.31,17.95,1.16,35.94,1.06,53.9,1.88,1.31,.06,2.5,.41,3.62,1.04,.18,.03,.36,.06,.54,.09Z"/><path class="cls-10" d="M165.58,144.09c-12.51,8.56-21.6,19.65-25.11,34.66-2.31,9.9-1.12,19.79,1.11,29.57,.44,1.94,1.07,3.84,1.62,5.76-2.19-.3-2.35-2.43-3.01-3.79-10.78-22.3-6.81-47.9,10.51-65.25,.3-.3,.52-.66,.77-1,.84-.65,1.68-1.29,2.51-1.94,1.4,2.35,3.91,1.36,5.89,1.84,1.81,.43,3.79,.13,5.7,.14Z"/><path class="cls-2" d="M233.64,146.55c-11.41,.09-22.81-.57-34.22-.77-9.68-.16-19.38-.82-29.08-1.15-1.24-.04-2.47-.46-3.71-.7,5.8-3.56,12.3-4.82,18.91-5.6,11.49-1.34,22.95-.43,34.41,.49,1.58,.13,3.17,.07,4.75,.1,3.51,1.92,6.48,4.47,8.94,7.62Z"/><path class="cls-3" d="M334.42,186.7c1.34-.04,2.71,.06,2.86,1.76,.18,2.02-1.4,2.41-2.92,2.6-7.02,.9-14.04,1.75-21.06,2.62-8.07,1.01-16.14,2.02-24.21,3.06-1.7,.22-3.4,.25-3.65-1.89-.22-1.84,1.4-2.18,2.78-2.36,15.09-1.94,30.18-3.84,45.27-5.75,.31-.04,.63-.04,.95-.05Z"/><path class="cls-26" d="M251.19,246.72c-3.51,.03-7.92-2.74-10.72-8.13-.7-1.35-1.33-3.01,.47-3.88,1.67-.81,2.37,.7,3.03,1.96,2.04,3.9,5.2,6.11,9.67,6.09,4.45-.02,7.63-2.21,9.7-6.07,.66-1.24,1.33-2.81,3.02-1.99,1.77,.86,1.19,2.53,.47,3.88-2.78,5.19-7.01,8.08-15.64,8.13Z"/><path class="cls-23" d="M259.68,221.95c-.04,3.5-2.56,6.06-5.97,6.08-3.41,.02-6.03-2.62-6.01-6.04,.02-3.32,2.81-6.01,6.15-5.92,3.29,.09,5.87,2.69,5.83,5.88Z"/><path class="cls-27" d="M223.48,192.3c-.21,12.44-3.29,23.93-10.93,34.04-9.49,12.57-25.83,14.33-37.05,4.58-8.29-7.2-12.29-16.59-14.34-26.84-3.03-15.1-1.02-29.63,7.25-42.91,4.06-6.52,9.4-11.75,17-13.94,9.53-2.74,20.8,1.72,27.18,10.03,6.65,8.66,11.23,21.59,10.9,35.04Z"/><path class="cls-33" d="M239.12,201.42c2.01-12.96-.05-25.19-6.03-36.79-.29-.56-.56-1.16-.66-1.77-.17-1.07-.21-2.25,1.03-2.71,1.28-.47,2.09,.09,2.73,1.38,2.61,5.24,4.49,10.72,5.43,16.47,1.31,7.99,.63,15.83-2.5,23.41Z"/><path class="cls-18" d="M171.08,201.51c.02-8.95,2-17.31,8.33-23.99,8.67-9.16,20.37-8.09,27.53,2.34,6.46,9.41,7.47,19.81,5.45,30.74-.92,4.99-2.97,9.45-6.01,13.51-7.99,10.68-21.04,10.51-28.81-.43-4.5-6.34-6.48-13.11-6.49-22.17Z"/></g></g></svg>